<?xml version="1.0" encoding="utf-8"?>
<!-- Generator: Adobe Illustrator 16.0.0, SVG Export Plug-In . SVG Version: 6.00 Build 0)  -->
<!DOCTYPE svg PUBLIC "-//W3C//DTD SVG 1.1//EN" "http://www.w3.org/Graphics/SVG/1.1/DTD/svg11.dtd">
<svg version="1.1" id="Layer_1" xmlns="http://www.w3.org/2000/svg" xmlns:xlink="http://www.w3.org/1999/xlink" x="0px" y="0px"
	 width="40.94px" height="31.31px" viewBox="0 0 40.94 31.31" enable-background="new 0 0 40.94 31.31" xml:space="preserve">
<g>
	<g>
		<path fill="none" stroke="#65BE62" stroke-width="2" stroke-miterlimit="10" d="M26.486,14.454c4.104,0,7.232-3.127,7.232-7.232
			c0-4.092-3.129-7.219-7.232-7.219c-0.719,0-1.436,0.232-2.164,0.232c1.445,2.178,2.164,4.342,2.164,6.986
			c0,2.658-0.719,4.822-2.164,6.986C25.051,14.208,25.768,14.454,26.486,14.454L26.486,14.454z M14.444,14.454
			c4.104,0,7.232-3.127,7.232-7.232c0-4.092-3.128-7.219-7.232-7.219c-4.092,0-7.221,3.127-7.221,7.219
			C7.223,11.327,10.352,14.454,14.444,14.454L14.444,14.454z M30.346,19.746c1.928,1.693,3.373,4.105,3.373,6.75v4.811h7.221v-4.811
			C40.939,22.885,35.164,20.475,30.346,19.746L30.346,19.746z M14.444,19.266C9.635,19.266,0,21.676,0,26.496v4.811h28.898v-4.811
			C28.898,21.676,19.266,19.266,14.444,19.266L14.444,19.266z M14.444,19.266"/>
	</g>
</g>
</svg>
