<svg xmlns="http://www.w3.org/2000/svg" width="40.94" height="31.31" viewBox="0 0 40.94 31.31"><path fill="none" stroke="#65BE62" stroke-width="2" stroke-miterlimit="10" d="M26.486 14.454c4.104 0 7.232-3.127 7.232-7.232 0-4.092-3.129-7.219-7.232-7.219-.719 0-1.436.232-2.164.232 1.445 2.178 2.164 4.342 2.164 6.986 0 2.658-.719 4.822-2.164 6.986.729.001 1.446.247 2.164.247zm-12.042 0c4.104 0 7.232-3.127 7.232-7.232 0-4.092-3.128-7.219-7.232-7.219-4.092 0-7.221 3.127-7.221 7.219 0 4.105 3.129 7.232 7.221 7.232zm15.902 5.292c1.928 1.693 3.373 4.105 3.373 6.75v4.811h7.221v-4.811c-.001-3.611-5.776-6.021-10.594-6.75zm-15.902-.48C9.635 19.266 0 21.676 0 26.496v4.811h28.898v-4.811c0-4.82-9.632-7.23-14.454-7.23zm0 0"/></svg>