<svg xmlns="http://www.w3.org/2000/svg" width="32.8" height="34.03" viewBox="0 0 32.8 34.03"><path fill="none" stroke="#65BE62" stroke-width="2" stroke-miterlimit="10" d="M26.209 20.853a6.587 6.587 0 0 0-5.451 2.894l-8.336-4.617a6.548 6.548 0 0 0 .037-6.043l6.329-2.752a6.585 6.585 0 0 0 5.414 2.843 6.598 6.598 0 0 0 6.59-6.591c0-3.632-2.957-6.588-6.59-6.588s-6.59 2.956-6.59 6.588c0 .748.131 1.462.361 2.133l-6.575 2.859a6.564 6.564 0 0 0-4.807-2.098c-3.633 0-6.59 2.955-6.59 6.589s2.957 6.591 6.59 6.591a6.573 6.573 0 0 0 4.768-2.055l8.6 4.764a6.549 6.549 0 0 0-.338 2.072c0 3.635 2.955 6.591 6.588 6.591s6.59-2.956 6.59-6.591a6.598 6.598 0 0 0-6.59-6.589zm0 11.374"/></svg>